<svg xmlns="http://www.w3.org/2000/svg" xmlns:xlink="http://www.w3.org/1999/xlink" width="500" zoomAndPan="magnify" viewBox="0 0 375 374.999991" height="500" preserveAspectRatio="xMidYMid meet" version="1.0"><defs><g/><clipPath id="da52036d0e"><path d="M 37.5 37.5 L 337.5 37.5 L 337.5 337.5 L 37.5 337.5 Z M 37.5 37.5 " clip-rule="nonzero"/></clipPath></defs><g clip-path="url(#da52036d0e)"><path fill="#082b43" d="M 205.164062 337.5 L 169.835938 337.5 C 168.078125 337.5 166.675781 336.269531 166.324219 334.6875 L 159.996094 305.867188 C 146.992188 302.878906 134.511719 297.78125 123.089844 290.574219 L 98.308594 306.570312 C 96.902344 307.449219 95.144531 307.273438 93.914062 306.042969 L 68.957031 280.910156 C 67.726562 279.855469 67.550781 277.921875 68.429688 276.515625 L 84.25 251.734375 C 77.21875 240.3125 71.945312 228.007812 68.957031 214.828125 L 40.3125 208.675781 C 38.554688 208.324219 37.5 206.746094 37.5 205.164062 L 37.5 169.835938 C 37.5 168.078125 38.554688 166.675781 40.3125 166.324219 L 68.957031 159.996094 C 71.945312 146.992188 77.21875 134.511719 84.25 123.089844 L 68.429688 98.308594 C 67.550781 96.902344 67.726562 95.144531 68.957031 93.914062 L 93.914062 68.957031 C 95.144531 67.726562 96.902344 67.550781 98.308594 68.429688 L 123.089844 84.25 C 134.511719 77.21875 146.992188 71.945312 159.996094 68.957031 L 166.324219 40.3125 C 166.675781 38.730469 168.078125 37.5 169.835938 37.5 L 205.164062 37.5 C 206.921875 37.5 208.324219 38.730469 208.675781 40.3125 L 214.828125 68.957031 C 228.007812 72.121094 240.488281 77.21875 251.910156 84.425781 L 276.691406 68.429688 C 278.097656 67.550781 279.855469 67.726562 281.085938 68.957031 L 306.042969 93.914062 C 307.273438 95.144531 307.449219 96.902344 306.570312 98.308594 L 290.574219 123.089844 C 297.78125 134.511719 302.878906 146.992188 306.042969 159.996094 L 334.6875 166.324219 C 336.269531 166.675781 337.5 168.078125 337.5 169.835938 L 337.5 205.164062 C 337.5 206.921875 336.269531 208.324219 334.6875 208.675781 L 306.042969 215.003906 C 302.878906 228.007812 297.78125 240.488281 290.574219 251.910156 L 306.570312 276.691406 C 307.449219 278.097656 307.273438 279.855469 306.042969 281.085938 L 281.085938 306.042969 C 279.855469 307.273438 278.097656 307.449219 276.691406 306.570312 L 251.910156 290.75 C 240.488281 297.78125 228.007812 303.054688 214.828125 306.042969 L 208.675781 334.6875 C 208.324219 336.269531 206.746094 337.5 205.164062 337.5 Z M 187.414062 273.351562 C 140.136719 273.351562 101.648438 234.863281 101.648438 187.414062 C 101.648438 140.136719 140.136719 101.648438 187.414062 101.648438 C 234.863281 101.648438 273.351562 140.136719 273.351562 187.414062 C 273.351562 234.863281 234.863281 273.351562 187.414062 273.351562 Z M 187.414062 273.351562 " fill-opacity="1" fill-rule="evenodd"/></g><path fill="#082b43" d="M 138.203125 187.414062 L 157.007812 206.21875 C 161.402344 210.609375 158.238281 218.167969 151.910156 218.167969 C 150.152344 218.167969 148.394531 217.464844 146.992188 216.058594 L 123.441406 192.507812 C 120.628906 189.695312 120.628906 185.304688 123.441406 182.492188 L 146.992188 158.765625 C 148.746094 157.007812 151.207031 156.304688 153.667969 157.007812 C 158.941406 158.414062 160.875 164.742188 157.007812 168.78125 Z M 236.621094 187.414062 L 217.992188 168.78125 C 216.234375 167.027344 215.355469 164.566406 216.058594 162.105469 C 217.464844 157.007812 223.96875 154.898438 227.832031 158.765625 L 251.558594 182.492188 C 254.371094 185.304688 254.371094 189.695312 251.558594 192.507812 L 227.832031 216.058594 C 226.605469 217.464844 224.847656 218.167969 222.914062 218.167969 C 216.761719 218.167969 213.597656 210.609375 217.992188 206.21875 Z M 236.621094 187.414062 " fill-opacity="1" fill-rule="evenodd"/><path fill="#082b43" d="M 171.59375 221.859375 C 166.324219 221.859375 162.808594 216.058594 165.445312 211.3125 L 197.078125 156.480469 C 198.484375 154.371094 200.59375 152.964844 203.230469 152.964844 C 208.5 153.140625 212.191406 158.765625 209.378906 163.511719 L 177.746094 218.34375 C 176.515625 220.453125 174.054688 221.859375 171.59375 221.859375 Z M 171.59375 221.859375 " fill-opacity="1" fill-rule="evenodd"/><g fill="#082b43" fill-opacity="1"><g transform="translate(89.506171, 137.481099)"><g><path d="M 4.515625 -2.140625 C 3.878906 -1.804688 3.257812 -1.597656 2.65625 -1.515625 C 2.0625 -1.429688 1.519531 -1.441406 1.03125 -1.546875 C 0.550781 -1.648438 0.140625 -1.832031 -0.203125 -2.09375 L 0.03125 -3.234375 L 0.21875 -3.328125 C 1.394531 -2.585938 2.640625 -2.554688 3.953125 -3.234375 C 4.710938 -3.628906 5.195312 -4.082031 5.40625 -4.59375 C 5.625 -5.101562 5.582031 -5.644531 5.28125 -6.21875 C 5.113281 -6.550781 4.90625 -6.796875 4.65625 -6.953125 C 4.414062 -7.117188 4.109375 -7.207031 3.734375 -7.21875 C 3.367188 -7.238281 2.921875 -7.191406 2.390625 -7.078125 L 1.03125 -6.75 C 0.0390625 -6.5 -0.78125 -6.5 -1.4375 -6.75 C -2.101562 -7.007812 -2.617188 -7.492188 -2.984375 -8.203125 C -3.242188 -8.703125 -3.347656 -9.210938 -3.296875 -9.734375 C -3.242188 -10.265625 -3.023438 -10.769531 -2.640625 -11.25 C -2.253906 -11.738281 -1.71875 -12.160156 -1.03125 -12.515625 C -0.257812 -12.921875 0.441406 -13.144531 1.078125 -13.1875 C 1.710938 -13.238281 2.300781 -13.132812 2.84375 -12.875 L 2.65625 -11.796875 L 2.5 -11.703125 C 2.007812 -11.910156 1.523438 -11.992188 1.046875 -11.953125 C 0.566406 -11.910156 0.0546875 -11.75 -0.484375 -11.46875 C -1.179688 -11.101562 -1.640625 -10.691406 -1.859375 -10.234375 C -2.078125 -9.785156 -2.0625 -9.320312 -1.8125 -8.84375 C -1.570312 -8.375 -1.25 -8.070312 -0.84375 -7.9375 C -0.445312 -7.8125 0.101562 -7.835938 0.8125 -8.015625 L 2.171875 -8.34375 C 3.273438 -8.625 4.171875 -8.632812 4.859375 -8.375 C 5.546875 -8.125 6.082031 -7.628906 6.46875 -6.890625 C 6.769531 -6.316406 6.90625 -5.742188 6.875 -5.171875 C 6.84375 -4.597656 6.628906 -4.046875 6.234375 -3.515625 C 5.847656 -2.992188 5.273438 -2.535156 4.515625 -2.140625 Z M 4.515625 -2.140625 "/></g></g></g><g fill="#082b43" fill-opacity="1"><g transform="translate(98.199384, 132.985869)"><g><path d="M 3.25 -1.484375 C 2.488281 -1.085938 1.796875 -0.976562 1.171875 -1.15625 C 0.546875 -1.34375 0.0390625 -1.800781 -0.34375 -2.53125 C -0.570312 -2.976562 -0.675781 -3.40625 -0.65625 -3.8125 C -0.632812 -4.226562 -0.476562 -4.632812 -0.1875 -5.03125 C 0.101562 -5.4375 0.539062 -5.851562 1.125 -6.28125 C 1.632812 -6.664062 2.003906 -6.988281 2.234375 -7.25 C 2.460938 -7.507812 2.585938 -7.738281 2.609375 -7.9375 C 2.640625 -8.132812 2.597656 -8.347656 2.484375 -8.578125 C 2.304688 -8.921875 2.046875 -9.117188 1.703125 -9.171875 C 1.367188 -9.234375 0.9375 -9.125 0.40625 -8.84375 C -0.0820312 -8.59375 -0.453125 -8.28125 -0.703125 -7.90625 C -0.960938 -7.539062 -1.144531 -7.085938 -1.25 -6.546875 L -1.390625 -6.46875 L -2.34375 -6.96875 C -2.226562 -7.550781 -1.984375 -8.09375 -1.609375 -8.59375 C -1.234375 -9.09375 -0.726562 -9.503906 -0.09375 -9.828125 C 0.8125 -10.296875 1.578125 -10.445312 2.203125 -10.28125 C 2.835938 -10.113281 3.335938 -9.675781 3.703125 -8.96875 L 5.796875 -4.921875 C 6.015625 -4.492188 6.304688 -4.375 6.671875 -4.5625 C 6.785156 -4.625 6.890625 -4.703125 6.984375 -4.796875 L 7.09375 -4.8125 L 7.640625 -4.109375 C 7.585938 -4.015625 7.5 -3.910156 7.375 -3.796875 C 7.25 -3.691406 7.117188 -3.601562 6.984375 -3.53125 C 6.554688 -3.3125 6.1875 -3.238281 5.875 -3.3125 C 5.5625 -3.394531 5.285156 -3.601562 5.046875 -3.9375 L 4.890625 -3.875 C 4.878906 -3.351562 4.738281 -2.894531 4.46875 -2.5 C 4.207031 -2.101562 3.800781 -1.765625 3.25 -1.484375 Z M 3.03125 -2.53125 C 3.445312 -2.75 3.757812 -3.035156 3.96875 -3.390625 C 4.175781 -3.742188 4.269531 -4.140625 4.25 -4.578125 C 4.238281 -5.023438 4.113281 -5.484375 3.875 -5.953125 L 3.375 -6.921875 L 3.234375 -6.890625 C 3.117188 -6.679688 2.957031 -6.46875 2.75 -6.25 C 2.550781 -6.039062 2.25 -5.796875 1.84375 -5.515625 C 1.4375 -5.234375 1.128906 -4.957031 0.921875 -4.6875 C 0.722656 -4.425781 0.617188 -4.164062 0.609375 -3.90625 C 0.597656 -3.65625 0.664062 -3.394531 0.8125 -3.125 C 1.050781 -2.664062 1.359375 -2.390625 1.734375 -2.296875 C 2.117188 -2.210938 2.550781 -2.289062 3.03125 -2.53125 Z M 3.03125 -2.53125 "/></g></g></g><g fill="#082b43" fill-opacity="1"><g transform="translate(106.115551, 128.892447)"><g><path d="M -2.8125 -10.109375 C -3.050781 -9.984375 -3.285156 -9.957031 -3.515625 -10.03125 C -3.742188 -10.113281 -3.921875 -10.269531 -4.046875 -10.5 C -4.160156 -10.726562 -4.179688 -10.957031 -4.109375 -11.1875 C -4.035156 -11.414062 -3.878906 -11.59375 -3.640625 -11.71875 C -3.398438 -11.84375 -3.164062 -11.867188 -2.9375 -11.796875 C -2.707031 -11.722656 -2.535156 -11.570312 -2.421875 -11.34375 C -2.296875 -11.113281 -2.269531 -10.878906 -2.34375 -10.640625 C -2.414062 -10.410156 -2.570312 -10.234375 -2.8125 -10.109375 Z M 1.328125 -0.6875 L -2.640625 -8.34375 L -1.5 -8.9375 L 2.46875 -1.28125 Z M 1.328125 -0.6875 "/></g></g></g><g fill="#082b43" fill-opacity="1"><g transform="translate(109.910596, 126.930042)"><g><path d="M 1.703125 -0.875 L -1.78125 -7.609375 L -3.109375 -6.921875 L -3.59375 -7.84375 L -2.265625 -8.53125 C -2.515625 -8.820312 -2.71875 -9.125 -2.875 -9.4375 C -3.132812 -9.925781 -3.242188 -10.394531 -3.203125 -10.84375 C -3.171875 -11.289062 -3.007812 -11.695312 -2.71875 -12.0625 C -2.425781 -12.425781 -2.035156 -12.734375 -1.546875 -12.984375 C -0.785156 -13.378906 -0.117188 -13.515625 0.453125 -13.390625 L 0.453125 -12.390625 L 0.3125 -12.28125 C -0.113281 -12.363281 -0.566406 -12.28125 -1.046875 -12.03125 C -1.492188 -11.800781 -1.769531 -11.507812 -1.875 -11.15625 C -1.988281 -10.8125 -1.9375 -10.425781 -1.71875 -10 C -1.582031 -9.726562 -1.382812 -9.4375 -1.125 -9.125 L 1.3125 -10.390625 L 1.796875 -9.46875 L -0.640625 -8.203125 L 2.84375 -1.46875 Z M 1.703125 -0.875 "/></g></g></g><g fill="#082b43" fill-opacity="1"><g transform="translate(115.363797, 124.110211)"><g><path d="M 9.125 -4.71875 L 7.859375 -4.0625 L 5.484375 -6.375 L 1.15625 -4.140625 L 1.65625 -0.859375 L 0.40625 -0.203125 L -1.3125 -12.171875 L 0.34375 -13.03125 Z M 0.0625 -11.34375 L 0.96875 -5.296875 L 4.625 -7.1875 L 0.234375 -11.421875 Z M 0.0625 -11.34375 "/></g></g></g><g fill="#082b43" fill-opacity="1"><g transform="translate(124.896493, 119.180887)"><g><path d="M 5.171875 -2.484375 C 4.597656 -2.179688 4.046875 -2.035156 3.515625 -2.046875 C 2.984375 -2.054688 2.5 -2.175781 2.0625 -2.40625 L 1.9375 -2.3125 L 2.46875 -1.28125 L 1.328125 -0.6875 L -4.21875 -11.421875 L -3.078125 -12.015625 L -0.890625 -7.796875 L -0.75 -7.828125 C -0.613281 -9.003906 0.0078125 -9.878906 1.125 -10.453125 C 1.75 -10.785156 2.375 -10.925781 3 -10.875 C 3.625 -10.820312 4.21875 -10.570312 4.78125 -10.125 C 5.351562 -9.675781 5.863281 -9.007812 6.3125 -8.125 C 6.757812 -7.257812 7 -6.453125 7.03125 -5.703125 C 7.070312 -4.960938 6.925781 -4.316406 6.59375 -3.765625 C 6.269531 -3.222656 5.796875 -2.796875 5.171875 -2.484375 Z M 4.359375 -3.359375 C 5.890625 -4.148438 6.144531 -5.53125 5.125 -7.5 C 4.601562 -8.519531 4.015625 -9.164062 3.359375 -9.4375 C 2.710938 -9.707031 2.023438 -9.648438 1.296875 -9.265625 C 0.585938 -8.898438 0.148438 -8.363281 -0.015625 -7.65625 C -0.191406 -6.957031 -0.0234375 -6.109375 0.484375 -5.109375 C 1.003906 -4.109375 1.601562 -3.472656 2.28125 -3.203125 C 2.957031 -2.941406 3.648438 -2.992188 4.359375 -3.359375 Z M 4.359375 -3.359375 "/></g></g></g><g fill="#082b43" fill-opacity="1"><g transform="translate(134.02679, 114.459643)"><g><path d="M 4.046875 -1.890625 C 3.429688 -1.578125 2.8125 -1.445312 2.1875 -1.5 C 1.570312 -1.550781 0.976562 -1.804688 0.40625 -2.265625 C -0.164062 -2.722656 -0.679688 -3.390625 -1.140625 -4.265625 C -1.585938 -5.140625 -1.828125 -5.945312 -1.859375 -6.6875 C -1.890625 -7.425781 -1.734375 -8.066406 -1.390625 -8.609375 C -1.054688 -9.148438 -0.566406 -9.585938 0.078125 -9.921875 C 0.585938 -10.179688 1.09375 -10.320312 1.59375 -10.34375 C 2.101562 -10.375 2.613281 -10.238281 3.125 -9.9375 L 3.265625 -10.046875 L 1.125 -14.1875 L 2.25 -14.765625 L 7.796875 -4.03125 L 6.671875 -3.453125 L 6.09375 -4.578125 L 5.921875 -4.53125 C 5.867188 -4.007812 5.691406 -3.515625 5.390625 -3.046875 C 5.097656 -2.585938 4.648438 -2.203125 4.046875 -1.890625 Z M 3.875 -3.109375 C 4.59375 -3.484375 5.035156 -4.019531 5.203125 -4.71875 C 5.378906 -5.425781 5.207031 -6.28125 4.6875 -7.28125 C 4.175781 -8.28125 3.582031 -8.910156 2.90625 -9.171875 C 2.226562 -9.441406 1.53125 -9.390625 0.8125 -9.015625 C 0.0703125 -8.640625 -0.367188 -8.109375 -0.515625 -7.421875 C -0.660156 -6.742188 -0.472656 -5.894531 0.046875 -4.875 C 1.066406 -2.90625 2.34375 -2.316406 3.875 -3.109375 Z M 3.875 -3.109375 "/></g></g></g><g fill="#082b43" fill-opacity="1"><g transform="translate(143.16403, 109.734808)"><g><path d="M 5.453125 -7.34375 L 0.203125 -4.625 C 0.703125 -3.707031 1.269531 -3.140625 1.90625 -2.921875 C 2.550781 -2.703125 3.234375 -2.78125 3.953125 -3.15625 C 4.503906 -3.4375 4.894531 -3.757812 5.125 -4.125 C 5.363281 -4.488281 5.46875 -4.925781 5.4375 -5.4375 L 5.578125 -5.515625 L 6.546875 -5.46875 C 6.609375 -4.800781 6.476562 -4.175781 6.15625 -3.59375 C 5.832031 -3.019531 5.273438 -2.53125 4.484375 -2.125 C 3.742188 -1.738281 3.03125 -1.554688 2.34375 -1.578125 C 1.664062 -1.597656 1.03125 -1.832031 0.4375 -2.28125 C -0.15625 -2.726562 -0.679688 -3.390625 -1.140625 -4.265625 C -1.585938 -5.140625 -1.8125 -5.953125 -1.8125 -6.703125 C -1.820312 -7.453125 -1.640625 -8.109375 -1.265625 -8.671875 C -0.890625 -9.234375 -0.363281 -9.691406 0.3125 -10.046875 C 1.289062 -10.546875 2.195312 -10.660156 3.03125 -10.390625 C 3.875 -10.128906 4.578125 -9.457031 5.140625 -8.375 C 5.359375 -7.945312 5.492188 -7.65625 5.546875 -7.5 Z M 4.03125 -7.796875 C 3.582031 -8.597656 3.09375 -9.09375 2.5625 -9.28125 C 2.03125 -9.476562 1.445312 -9.414062 0.8125 -9.09375 C 0.132812 -8.738281 -0.296875 -8.28125 -0.484375 -7.71875 C -0.679688 -7.15625 -0.609375 -6.441406 -0.265625 -5.578125 Z M 4.03125 -7.796875 "/></g></g></g><g fill="#082b43" fill-opacity="1"><g transform="translate(151.323019, 105.515823)"><g><path d="M 3.125 -1.421875 C 2.582031 -1.140625 2.070312 -1.070312 1.59375 -1.21875 C 1.125 -1.375 0.734375 -1.753906 0.421875 -2.359375 L -4.25 -11.40625 L -3.109375 -12 L 1.515625 -3.046875 C 1.679688 -2.722656 1.859375 -2.519531 2.046875 -2.4375 C 2.242188 -2.363281 2.472656 -2.394531 2.734375 -2.53125 C 2.890625 -2.601562 3.039062 -2.707031 3.1875 -2.84375 L 3.3125 -2.875 L 3.890625 -2.046875 C 3.835938 -1.941406 3.738281 -1.832031 3.59375 -1.71875 C 3.457031 -1.613281 3.300781 -1.515625 3.125 -1.421875 Z M 3.125 -1.421875 "/></g></g></g><g fill="#082b43" fill-opacity="1"><g transform="translate(155.485768, 103.36328)"><g><path d="M 1.328125 -0.6875 L -2.640625 -8.34375 L -1.546875 -8.90625 L -0.921875 -7.703125 L -0.78125 -7.75 C -0.863281 -8.800781 -0.414062 -9.582031 0.5625 -10.09375 C 1.09375 -10.363281 1.539062 -10.46875 1.90625 -10.40625 L 2.09375 -9.3125 L 1.96875 -9.203125 C 1.613281 -9.203125 1.265625 -9.113281 0.921875 -8.9375 C 0.304688 -8.613281 -0.0390625 -8.140625 -0.125 -7.515625 C -0.21875 -6.890625 0 -6.066406 0.53125 -5.046875 L 2.46875 -1.28125 Z M 1.328125 -0.6875 "/></g></g></g><g fill="#082b43" fill-opacity="1"><g transform="translate(161.396872, 100.306669)"><g><path d="M 3.25 -1.484375 C 2.488281 -1.085938 1.796875 -0.976562 1.171875 -1.15625 C 0.546875 -1.34375 0.0390625 -1.800781 -0.34375 -2.53125 C -0.570312 -2.976562 -0.675781 -3.40625 -0.65625 -3.8125 C -0.632812 -4.226562 -0.476562 -4.632812 -0.1875 -5.03125 C 0.101562 -5.4375 0.539062 -5.851562 1.125 -6.28125 C 1.632812 -6.664062 2.003906 -6.988281 2.234375 -7.25 C 2.460938 -7.507812 2.585938 -7.738281 2.609375 -7.9375 C 2.640625 -8.132812 2.597656 -8.347656 2.484375 -8.578125 C 2.304688 -8.921875 2.046875 -9.117188 1.703125 -9.171875 C 1.367188 -9.234375 0.9375 -9.125 0.40625 -8.84375 C -0.0820312 -8.59375 -0.453125 -8.28125 -0.703125 -7.90625 C -0.960938 -7.539062 -1.144531 -7.085938 -1.25 -6.546875 L -1.390625 -6.46875 L -2.34375 -6.96875 C -2.226562 -7.550781 -1.984375 -8.09375 -1.609375 -8.59375 C -1.234375 -9.09375 -0.726562 -9.503906 -0.09375 -9.828125 C 0.8125 -10.296875 1.578125 -10.445312 2.203125 -10.28125 C 2.835938 -10.113281 3.335938 -9.675781 3.703125 -8.96875 L 5.796875 -4.921875 C 6.015625 -4.492188 6.304688 -4.375 6.671875 -4.5625 C 6.785156 -4.625 6.890625 -4.703125 6.984375 -4.796875 L 7.09375 -4.8125 L 7.640625 -4.109375 C 7.585938 -4.015625 7.5 -3.910156 7.375 -3.796875 C 7.25 -3.691406 7.117188 -3.601562 6.984375 -3.53125 C 6.554688 -3.3125 6.1875 -3.238281 5.875 -3.3125 C 5.5625 -3.394531 5.285156 -3.601562 5.046875 -3.9375 L 4.890625 -3.875 C 4.878906 -3.351562 4.738281 -2.894531 4.46875 -2.5 C 4.207031 -2.101562 3.800781 -1.765625 3.25 -1.484375 Z M 3.03125 -2.53125 C 3.445312 -2.75 3.757812 -3.035156 3.96875 -3.390625 C 4.175781 -3.742188 4.269531 -4.140625 4.25 -4.578125 C 4.238281 -5.023438 4.113281 -5.484375 3.875 -5.953125 L 3.375 -6.921875 L 3.234375 -6.890625 C 3.117188 -6.679688 2.957031 -6.46875 2.75 -6.25 C 2.550781 -6.039062 2.25 -5.796875 1.84375 -5.515625 C 1.4375 -5.234375 1.128906 -4.957031 0.921875 -4.6875 C 0.722656 -4.425781 0.617188 -4.164062 0.609375 -3.90625 C 0.597656 -3.65625 0.664062 -3.394531 0.8125 -3.125 C 1.050781 -2.664062 1.359375 -2.390625 1.734375 -2.296875 C 2.117188 -2.210938 2.550781 -2.289062 3.03125 -2.53125 Z M 3.03125 -2.53125 "/></g></g></g><g fill="#082b43" fill-opacity="1"><g transform="translate(169.313039, 96.213247)"><g><path d="M 6.125 -3.171875 L 0.53125 -0.265625 L 0.015625 -1.25 L 1.328125 -9.046875 L 1.203125 -9.15625 L -2.796875 -7.09375 L -3.28125 -8.015625 L 2.09375 -10.796875 L 2.609375 -9.8125 L 1.296875 -2.046875 L 1.421875 -1.921875 L 5.640625 -4.109375 Z M 6.125 -3.171875 "/></g></g></g><g fill="#082b43" fill-opacity="1"><g transform="translate(175.980381, 92.765588)"><g><path d="M 5.453125 -7.34375 L 0.203125 -4.625 C 0.703125 -3.707031 1.269531 -3.140625 1.90625 -2.921875 C 2.550781 -2.703125 3.234375 -2.78125 3.953125 -3.15625 C 4.503906 -3.4375 4.894531 -3.757812 5.125 -4.125 C 5.363281 -4.488281 5.46875 -4.925781 5.4375 -5.4375 L 5.578125 -5.515625 L 6.546875 -5.46875 C 6.609375 -4.800781 6.476562 -4.175781 6.15625 -3.59375 C 5.832031 -3.019531 5.273438 -2.53125 4.484375 -2.125 C 3.742188 -1.738281 3.03125 -1.554688 2.34375 -1.578125 C 1.664062 -1.597656 1.03125 -1.832031 0.4375 -2.28125 C -0.15625 -2.726562 -0.679688 -3.390625 -1.140625 -4.265625 C -1.585938 -5.140625 -1.8125 -5.953125 -1.8125 -6.703125 C -1.820312 -7.453125 -1.640625 -8.109375 -1.265625 -8.671875 C -0.890625 -9.234375 -0.363281 -9.691406 0.3125 -10.046875 C 1.289062 -10.546875 2.195312 -10.660156 3.03125 -10.390625 C 3.875 -10.128906 4.578125 -9.457031 5.140625 -8.375 C 5.359375 -7.945312 5.492188 -7.65625 5.546875 -7.5 Z M 4.03125 -7.796875 C 3.582031 -8.597656 3.09375 -9.09375 2.5625 -9.28125 C 2.03125 -9.476562 1.445312 -9.414062 0.8125 -9.09375 C 0.132812 -8.738281 -0.296875 -8.28125 -0.484375 -7.71875 C -0.679688 -7.15625 -0.609375 -6.441406 -0.265625 -5.578125 Z M 4.03125 -7.796875 "/></g></g></g><g fill="#082b43" fill-opacity="1"><g transform="translate(184.139369, 88.546603)"><g><path d="M 1.328125 -0.6875 L -4.21875 -11.421875 L -3.078125 -12.015625 L 0.15625 -5.75 L 0.34375 -5.84375 L 1.53125 -10.5 L 2.71875 -11.109375 L 2.8125 -10.953125 L 1.546875 -5.953125 L 6.890625 -3.796875 L 6.984375 -3.609375 L 5.71875 -2.953125 L 0.828125 -4.921875 L 0.640625 -4.828125 L 2.46875 -1.28125 Z M 1.328125 -0.6875 "/></g></g></g></svg>